<svg width="14" height="10" viewBox="0 0 14 10" fill="none" xmlns="http://www.w3.org/2000/svg">
<path d="M4.75004 8.15L2.12504 5.525C2.0564 5.45552 1.97465 5.40035 1.88453 5.36271C1.79441 5.32506 1.69771 5.30567 1.60004 5.30567C1.50237 5.30567 1.40568 5.32506 1.31556 5.36271C1.22544 5.40035 1.14368 5.45552 1.07504 5.525C1.00556 5.59364 0.950399 5.67539 0.912749 5.76551C0.8751 5.85563 0.855713 5.95233 0.855713 6.05C0.855713 6.14767 0.8751 6.24436 0.912749 6.33448C0.950399 6.4246 1.00556 6.50636 1.07504 6.575L4.21754 9.7175C4.51004 10.01 4.98254 10.01 5.27504 9.7175L13.225 1.775C13.2945 1.70636 13.3497 1.62461 13.3873 1.53448C13.425 1.44436 13.4444 1.34767 13.4444 1.25C13.4444 1.15233 13.425 1.05563 13.3873 0.965512C13.3497 0.875391 13.2945 0.79364 13.225 0.724998C13.1564 0.655518 13.0746 0.600355 12.9845 0.562705C12.8944 0.525055 12.7977 0.505669 12.7 0.505669C12.6024 0.505669 12.5057 0.525055 12.4156 0.562705C12.3254 0.600355 12.2437 0.655518 12.175 0.724998L4.75004 8.15Z" fill="white"/>
</svg>
