<svg width="24" height="25" viewBox="0 0 24 25" fill="none" xmlns="http://www.w3.org/2000/svg">
<path d="M8.5096 20.4988H8.4296C6.81796 20.4848 5.22963 20.1159 3.7796 19.4187C3.51288 19.2945 3.29326 19.089 3.15291 18.8322C3.01255 18.5754 2.95883 18.2809 2.9996 17.9917C3.04395 17.7005 3.17999 17.4306 3.38831 17.2206C3.59663 17.0107 3.86657 16.8712 4.1596 16.8223C5.05821 16.7035 5.92269 16.4034 6.6996 15.9404C5.35076 14.8953 4.31235 13.5081 3.69442 11.9258C3.07649 10.3434 2.90205 8.62488 3.1896 6.95228C3.22859 6.68734 3.34357 6.43909 3.52085 6.23705C3.69813 6.03502 3.93026 5.88771 4.1896 5.81266C4.44192 5.73414 4.71195 5.73078 4.96617 5.80301C5.22039 5.87524 5.44761 6.01988 5.6196 6.21896C6.20361 6.97783 6.9375 7.61084 7.77651 8.07937C8.61552 8.5479 9.54206 8.84214 10.4996 8.94412C10.5453 7.77662 11.0516 6.67353 11.9096 5.87212C12.338 5.4656 12.8438 5.14763 13.3974 4.93675C13.9511 4.72587 14.5415 4.62629 15.1344 4.64381C15.7273 4.66134 16.3107 4.79562 16.8507 5.03882C17.3907 5.28203 17.8764 5.6293 18.2796 6.0604C18.3846 6.15243 18.5152 6.21108 18.6542 6.22875C18.7933 6.24642 18.9345 6.22229 19.0596 6.1595C19.298 6.04806 19.5635 6.00611 19.8251 6.03855C20.0867 6.07098 20.3336 6.17646 20.5369 6.34268C20.7403 6.50889 20.8918 6.729 20.9737 6.9773C21.0556 7.22561 21.0646 7.49188 20.9996 7.74505C20.769 8.68659 20.3319 9.56625 19.7196 10.3216C19.5846 13.1406 18.3305 15.7925 16.2305 17.699C14.1306 19.6054 11.3553 20.6119 8.5096 20.4988ZM8.5096 18.5169H8.5896C9.75227 18.5565 10.9113 18.367 11.9995 17.9594C13.0878 17.5518 14.0835 16.9342 14.929 16.1424C15.7746 15.3506 16.4531 14.4003 16.9253 13.3467C17.3974 12.2931 17.6538 11.157 17.6796 10.0045C17.6961 9.68859 17.8276 9.38935 18.0496 9.16214C18.2935 8.85617 18.5015 8.52371 18.6696 8.17117C18.3094 8.17185 17.953 8.09717 17.6239 7.95202C17.2948 7.80687 17.0002 7.59452 16.7596 7.32884C16.5282 7.10147 16.2534 6.92213 15.9511 6.80132C15.6489 6.6805 15.3254 6.62065 14.9996 6.62526C14.6705 6.61682 14.343 6.67289 14.0358 6.79023C13.7286 6.90757 13.4478 7.08387 13.2096 7.30903C12.8882 7.61127 12.6525 7.99187 12.5261 8.41273C12.3998 8.8336 12.3872 9.27996 12.4896 9.70717L12.7496 10.8369L11.5796 10.9162C10.3807 11.013 9.17487 10.8505 8.04562 10.4399C6.91637 10.0292 5.89069 9.3802 5.0396 8.53783C5.0031 9.84234 5.3324 11.1313 5.9909 12.2615C6.64939 13.3916 7.61127 14.3186 8.7696 14.9395L9.7196 15.4746L9.0896 16.3665C8.4083 17.2519 7.47479 17.9147 6.4096 18.2691C7.09292 18.4389 7.79517 18.5221 8.4996 18.5169H8.5096Z" fill="#6E7191"/>
</svg>
