<svg width="22" height="6" viewBox="0 0 22 6" fill="none" xmlns="http://www.w3.org/2000/svg">
<path d="M11.0013 5.33334C12.29 5.33334 13.3346 4.28867 13.3346 3C13.3346 1.71134 12.29 0.666672 11.0013 0.666672C9.71264 0.666672 8.66797 1.71134 8.66797 3C8.66797 4.28867 9.71264 5.33334 11.0013 5.33334Z" fill="#5F2EEA"/>
<path d="M19.1654 5.33334C20.454 5.33334 21.4987 4.28867 21.4987 3C21.4987 1.71134 20.454 0.666672 19.1654 0.666672C17.8767 0.666672 16.832 1.71134 16.832 3C16.832 4.28867 17.8767 5.33334 19.1654 5.33334Z" fill="#5F2EEA"/>
<path d="M2.83333 5.33334C4.122 5.33334 5.16667 4.28867 5.16667 3C5.16667 1.71134 4.122 0.666672 2.83333 0.666672C1.54467 0.666672 0.5 1.71134 0.5 3C0.5 4.28867 1.54467 5.33334 2.83333 5.33334Z" fill="#5F2EEA"/>
</svg>
